# circle.obj
#

o circle

v 0.0 					0.0 				0.0
v 1.0 					0.0 				0.0
v 0.866025403784439 	0.5 				0.0
v 0.5 					0.866025403784439 	0.0
v 0.0 					1.0 				0.0
v -0.5 					0.866025403784439 	0.0
v -0.866025403784439 	0.5 				0.0
v -1.0 					0.0 				0.0
v -0.866025403784439 	-0.5 				0.0
v -0.5 					-0.866025403784439 	0.0
v 0.0 					-1.0 				0.0
v 0.5 					-0.866025403784439 	0.0
v 0.866025403784439 	-0.5 				0.0

vt 0.5 					0.5
vt 1.0 					0.5
vt 0.93301270189222 	0.75
vt 0.75					0.93301270189222
vt 0.5 					1.0
vt 0.25 				0.93301270189222
vt 0.06698729810778 	0.75
vt 0.0  				0.5
vt 0.06698729810778 	0.25
vt 0.25 				0.06698729810778
vt 0.5 					0.0
vt 0.75					0.06698729810778
vt 0.93301270189222 	0.25

vn 0.000000 0.000000 1.000000

g circle
s 1
f 1/1/1 2/2/1 3/3/1
f 1/1/1 3/3/1 4/4/1
f 1/1/1 4/4/1 5/5/1
f 1/1/1 5/5/1 6/6/1
f 1/1/1 6/6/1 7/7/1
f 1/1/1 7/7/1 8/8/1
f 1/1/1 8/8/1 9/9/1
f 1/1/1 9/9/1 10/10/1
f 1/1/1 10/10/1 11/11/1
f 1/1/1 11/11/1 12/12/1
f 1/1/1 12/12/1 13/13/1
f 1/1/1 13/13/1 2/2/1
