# Blender v2.79 (sub 0) OBJ File: ''
# www.blender.org
mtllib sword.mtl
o Cube
v 0.088189 0.249981 -0.068337
v 0.088189 0.249981 0.068337
v -0.088189 0.249981 0.068337
v -0.088189 0.249981 -0.068337
v 0.088189 2.810854 -0.068337
v 0.088189 2.810854 0.068337
v -0.088189 2.810854 0.068337
v -0.088189 2.810854 -0.068337
v 0.088189 0.100431 -0.341684
v 0.088189 0.100431 0.341684
v -0.088189 0.100431 -0.341684
v -0.088189 0.100431 0.341684
v 0.088189 0.249981 -0.341684
v -0.088189 0.249981 -0.341684
v 0.088189 0.100431 -0.068337
v 0.088189 0.100431 0.068337
v 0.088189 0.249981 0.341684
v -0.088189 0.249981 0.341684
v -0.088189 0.100431 0.068337
v -0.088189 0.100431 -0.068337
v 0.088189 -0.204776 -0.068337
v 0.088189 -0.204776 0.068337
v -0.088189 -0.204776 0.068337
v -0.088189 -0.204776 -0.068337
vn 0.0000 1.0000 0.0000
vn 1.0000 0.0000 0.0000
vn -0.0000 -0.0000 1.0000
vn -1.0000 -0.0000 -0.0000
vn 0.0000 0.0000 -1.0000
vn 0.0000 -1.0000 0.0000
usemtl Material
s off
f 5//1 8//1 7//1 6//1
f 1//2 5//2 6//2 2//2
f 2//3 6//3 7//3 3//3
f 3//4 7//4 8//4 4//4
f 5//5 1//5 4//5 8//5
f 14//5 13//5 9//5 11//5
f 4//1 1//1 13//1 14//1
f 2//1 3//1 18//1 17//1
f 12//3 10//3 17//3 18//3
f 12//4 18//4 3//4 14//4 11//4 20//4 19//4
f 2//2 17//2 10//2 16//2 15//2 9//2 13//2 1//2
f 16//3 19//3 23//3 22//3
f 21//6 22//6 23//6 24//6
f 19//4 20//4 24//4 23//4
f 15//2 16//2 22//2 21//2
f 20//5 15//5 21//5 24//5
f 20//6 11//6 9//6 15//6
f 16//6 10//6 12//6 19//6
